<?xml version="1.0" encoding="UTF-8"?><svg id="Layer_1" xmlns="http://www.w3.org/2000/svg" viewBox="0 0 19.63 19.63"><defs><style>.cls-1{stroke-width:0px;}</style></defs><path class="cls-1" d="m4.77,17.81c.02.48.41.85.89.85h8.32c.48,0,.87-.38.89-.85l.59-12.54H4.17l.59,12.54Zm6.93-9.42c0-.2.16-.36.36-.36h.58c.2,0,.36.16.36.36v7.16c0,.2-.16.36-.36.36h-.58c-.2,0-.36-.16-.36-.36v-7.16Zm-2.53,0c0-.2.16-.36.36-.36h.58c.2,0,.36.16.36.36v7.16c0,.2-.16.36-.36.36h-.58c-.2,0-.36-.16-.36-.36v-7.16h0Zm-2.53,0c0-.2.16-.36.36-.36h.58c.2,0,.36.16.36.36v7.16c0,.2-.16.36-.36.36h-.58c-.2,0-.36-.16-.36-.36v-7.16Z"/><path class="cls-1" d="m15.85,1.88h-3.84v-.73c0-.1-.08-.19-.19-.19h-4.03c-.1,0-.19.08-.19.19v.73h-3.84c-.31,0-.56.25-.56.56v1.76h13.19v-1.76c0-.31-.25-.56-.56-.56Z"/></svg>