<?xml version="1.0" encoding="UTF-8"?><svg id="Layer_2" xmlns="http://www.w3.org/2000/svg" viewBox="0 0 583.15 188.68"><defs><style>.cls-1,.cls-2{fill:none;}.cls-3{fill:#fff;}.cls-2{stroke:#fff;stroke-linecap:round;stroke-linejoin:round;}</style></defs><g id="Layer_7"><path class="cls-1" d="M244.47,46.13h-23.63v25.97h23.63c14.68,0,17.69-5.14,17.69-12.86,0-6.81-2.14-13.11-17.69-13.11Z"/><path class="cls-1" d="M189.04,48.59c-2.74-2.75-5.01-4.9-6.9-3.9h0c-1.34.7,1.24,4.01,20.37,45.78,1.5-2.02,2.63-3.96,3.45-5.85v-14.48c-2.65-6.38-8.56-13.16-16.92-21.55Z"/><path class="cls-1" d="M285.65,48.46c-2.75-2.75-5.01-4.9-6.91-3.9h0c-1.33.7,1.24,4.02,20.37,45.78,3.71-5,5.26-9.53,4.98-14.05l-3.25-9.74c-3.11-5.39-8.32-11.2-15.19-18.09Z"/><path class="cls-1" d="M245.95,85h-35.28c-.8,3.58-2.7,7.04-5.82,10.45l11.55,28.49c4.95,12.19,10.31,22.3,14.19,26.2,1.37,1.38,5.25,4.15,7.33,4.15,3.22,0,5.61-3.65,4.69-18.34l-2.53-4.3c-7.83-16.35-5.11-33.9,9.33-33.9,4.72,0,9.89,2.53,12.63,5.29.46.45,1.18,1.39,2.14,2.52l-1.84-6.19,9.43-1.15,13.23,37c4.34,11.95,5.79,13.78,7.38,15.39,1.84,1.83,4.35,3.22,6.05,3.22,5.08,0,6.71-14.86,5.76-27.05-.02,0-.02-.01-.02-.02-5.93-12.52-8.48-18.8-13.07-30.2-2.74-6.79-6.32-15.88-11.91-29.66-.67-1.65-1.3-3.2-1.89-4.66-1.07,15.1-11.6,22.76-31.35,22.76Z"/><path class="cls-1" d="M70.27,60.17c-.98-17.48.34-28.14,13.96-28.14,2.61,0,5.3.45,9.56,1.36-10.62-10.67-20.34-17.25-30.04-17.25h0c-20.71.01-23.85,35.64-.13,83.07,5.02-5.45,8.5-9.08,6.65-39.04Z"/><polygon class="cls-1" points="449.18 47.23 435.11 4.54 434.82 4.54 420.75 47.23 449.18 47.23"/><path class="cls-1" d="M256.34,22.61c0-5.8-1.07-11.01-13.98-11.01h-21.65v22.01h21.65c12.91,0,13.98-5.21,13.98-11.01Z"/><path class="cls-1" d="M88.1,34.99c-19.22,0-17.22,26.55-3.43,40.4,6.1,6.13,15.32,10.89,19.8,10.89,13.81,0,11.61-27.69-7.88-49.7-3.55-1.13-5.5-1.59-8.48-1.59h-.01Z"/><path class="cls-1" d="M533.23,84.33c-5.79-23.48-9.51-43.26-10.31-53.89-8.41,8.2-12.03,52.01,10.31,53.89Z"/><path class="cls-1" d="M361.76,105.42c-2.3-2.29-6.25-4.36-8.32-4.36-4.36,0-8.24,3.68-3.39,21.82,5.31,19.76,9.77,24.82,11.6,26.65,2.98,2.99,6.93,5.06,9.01,5.06h.01c3.58,0,5.6-6.88,3.1-19.07-3.84-19.98-9.49-27.57-12.01-30.1Z"/><path class="cls-1" d="M260.97,105.42c-2.3-2.29-6.24-4.36-8.32-4.36-4.36,0-8.24,3.68-3.39,21.82,5.31,19.76,9.77,24.82,11.61,26.65,2.98,2.99,6.92,5.06,9,5.06h.01c3.58,0,5.6-6.88,3.11-19.07-3.85-19.98-9.51-27.57-12.02-30.1Z"/><path class="cls-1" d="M526.18,27.85c1.05,8.42,3.16,25.35,11.53,56.14,11.02-2.89,15.69-34.94,16.1-54.26-8.12-7.25-18.74-7.69-27.63-1.88Z"/><path class="cls-1" d="M537.15,5.66c-7.79.71-11.9,9.88-11.26,19.55,9.16-5.69,19.47-5.05,28.12,1.87.07-15.92-7.7-22.25-16.86-21.42Z"/><path class="cls-1" d="M492.32,100.59c-5.66,0-5.47,8.72-3.37,19.75,3.53,18.16,7.7,24.82,12.29,29.41,2.52,2.53,6,4.14,7.7,4.14,11.14,0,6.11-34.46-7.39-48.02-3.2-3.21-6.78-5.28-9.23-5.28Z"/><path class="cls-1" d="M164.44,105.42c-2.28-2.29-6.23-4.36-8.31-4.36-4.35,0-8.23,3.68-3.39,21.82,5.34,19.76,9.79,24.82,11.63,26.65,2.97,2.99,6.91,5.06,8.98,5.06,3.58,0,5.6-6.88,3.12-19.07-3.85-19.98-9.51-27.57-12.03-30.1Z"/><path class="cls-3" d="M122.17,100.14c.22-.91.1-1.59-.58-2.27-.67-.68-1.9-1.36-2.47-1.36s-.63.69-.74,1.14c-.57,14.98-8.76,29.05-20.51,29.05-7.09,0-16.84-5.68-23.17-12.03-3.16-3.18-5.58-6.36-9.1-11.58,7.28-4.32,11.12-20.88,8.15-39.04,3.56,5.44,5.3,7.94,9.14,11.8,7.01,7.04,17.69,12.71,23.85,12.71,14.73,0,14.64-26.33-6.55-50.61,7.83,3.18,14.32,7.26,21.1,14.07,9.94,9.98,16.23,24.73,11.14,30.86-1.22,1.58-1.93,1.81-1.02,2.72.45.46,1.46.91,2.39.91,3.73,0,4.64-6.58,2.41-14.07h-.02c-2.35-8.18-5.72-13.62-12.73-20.66-7.91-7.95-15.6-12.48-26.13-17.25-13.78-13.85-24.56-21.11-36.87-21.11-29.84,0-34.06,46.77-3.65,87.62-3.78,1.12-22.25-12.39-33.87-29.14C9.99,53.21.39,33.32,14.56,20.38c1.01-.68,2.42-1.13,1.29-2.27-.67-.68-2.25-1.07-3.55-1.13-18.38-.83-15.05,25.73,2.6,51.52,14.57,21.28,41.1,36.4,44.53,35.72,2.16,2.73,4.48,5.21,6.06,6.8,12.21,12.26,26.56,18.61,35.51,18.61,11.2,0,15.62-5.67,18.6-18.61,28.15,62.18,6.69,74.02-5.44,74.02-19.03,0-42.9-14.76-57.59-29.51-14.01-14.07-18.47-37.92-6.9-37.92,8.02,0,19.41,5.45,26.87,12.94,10.39,10.44,10.89,19.75,1.17,21.79-.71.22-2.2.22-1.3,1.13,1.35,1.36,3.82,1.59,6.43,1.59,10.64,0,13.73-7.95-.05-21.79-11.98-12.03-27.15-18.84-36.29-18.84-13.43,0-7.94,24.81,7,40.65,19.78,20.99,45.05,33.6,66.13,33.6,30.22,0,25.12-29.12,8.82-67.43-2.55-5-6.72-16.12-6.28-21.11ZM104.47,86.28c-4.48,0-13.7-4.76-19.8-10.89-13.79-13.85-15.79-40.4,3.43-40.4h.01c2.98,0,4.93.46,8.48,1.59,19.49,22.01,21.69,49.7,7.88,49.7ZM63.62,99.21c-23.72-47.43-20.58-83.06.13-83.06h0c9.7-.01,19.42,6.57,30.04,17.24-4.26-.91-6.95-1.36-9.56-1.36-13.62,0-14.94,10.66-13.96,28.14,1.85,29.96-1.63,33.59-6.65,39.04Z"/><path class="cls-3" d="M552.53,135.02h.01l-.06-.26c.02.1.04.18.05.26Z"/><path class="cls-2" d="M543.26,151.96c-.09.16-.16.32-.25.46"/><path class="cls-3" d="M559.25,31.88c-1.15-19.49-9.97-28.88-22.12-28.02-8.8.62-14.92,9.27-14.42,23.25-12.7,10.47-15.43,31.89-6.55,48.48,4.22,7.9,10.44,10.24,17.57,10.68,6.04,19.69,10.2,46.46,10.31,47.53l.33,2.94c.16,1.68.27,3.28.32,4.75.17,4.72-.24,8.29-1.34,10.44l-.32.65c-.75,1.26-1.8,1.94-3.19,1.94-1.89,0-4.63-1.62-6.24-3.21-3.42-3.44-4.49-5.03-13.98-30.29L481.54,0h-10.37l35.14,108.35c-.96-1.15-1.68-2.08-2.83-3.22-5.03-5.06-11.25-8.27-17.29-8.27-7.75,0-8.8,9.18-9.47,14.02-.54,4.21.18,8.99,1.7,13.76-.01,0,0,.03,0,.03,1.95,10.7,5.18,28.93-2.28,28.93-1.89,0-4.03-1.37-6.08-3.44-10.75-10.79-10.27-33.08-23.08-45.95-4.36-4.36-10.16-7.35-13.56-7.35-8.5,0-7.04,11.71-7.09,17.92-2.07-3.22-3.95-6.42-7.37-9.87-4.59-4.61-10.47-8.05-14.24-8.05-5.85,0-4.97,3.02-3.94,7.81,7.25,33.38,5.3,48.87-.13,48.79-5.5-.08-10.51-6.28-14.86-18.23l-13.22-37-9.43,1.15,1.84,6.19c-.97-1.13-1.68-2.07-2.14-2.52-2.75-2.76-7.91-5.29-12.63-5.29-14.44,0-17.16,17.55-9.33,33.9,1.67,18.17-2.96,22.64-6.46,22.64-2.08,0-5.95-2.77-7.33-4.15-3.89-3.9-9.23-14.01-14.18-26.2l-11.56-28.49s.08-.09.12-.13h-.01c3.08-3.37,4.97-6.8,5.79-10.33h-.25l-.23-.68-2.68-8.03c.28,4.52-1.27,9.05-4.98,14.05-19.13-41.76-21.7-45.08-20.37-45.79h0c1.9-.99,4.16,1.16,6.91,3.91,6.87,6.9,12.08,12.7,15.19,18.09l-2.18-6.52c-2.87-3.7-6.36-7.56-10.4-11.62-4.58-4.61-9.17-7.13-12.57-7.13-1.89,0-3.1.41-3.7,1.36,3.62,4.04,5.41,9.67,5.41,16.97,0,.9-.04,1.77-.1,2.62.59,1.46,1.22,3.01,1.89,4.66,5.59,13.78,9.17,22.87,11.91,29.66,4.59,11.4,7.14,17.68,13.07,30.2,0,0,0,.02.02.02.95,12.19-.68,27.05-5.76,27.05-1.7,0-4.21-1.39-6.05-3.22-1.59-1.61-3.04-3.44-7.38-15.39l-13.23-37-9.43,1.15,1.84,6.19c-.96-1.13-1.68-2.07-2.14-2.52-2.74-2.76-7.91-5.29-12.63-5.29-14.44,0-17.16,17.55-9.33,33.9l2.53,4.3c.92,14.69-1.47,18.34-4.69,18.34-2.08,0-5.96-2.77-7.33-4.15-3.88-3.9-9.24-14.01-14.19-26.2l-11.55-28.49c3.11-3.41,5.01-6.87,5.82-10.45h-4.71v-.38c-.82,1.89-1.95,3.83-3.45,5.85-19.13-41.77-21.71-45.08-20.37-45.79h0c1.89-.99,4.16,1.16,6.9,3.91,8.36,8.4,14.27,15.17,16.92,21.55v-4.42c-3.33-5.35-8.18-11.04-14.31-17.2-4.58-4.61-9.17-7.13-12.57-7.13-7.17,0-4.55,5.76,3.49,25.61,5.59,13.79,9.16,22.77,11.9,29.57.01.03.02.07.03.1,4.82,11.97,7.05,17.18,13.17,30.08,0,.01.01.01.01.01.97,12.2-.68,27.06-5.76,27.06-1.7,0-4.21-1.39-6.03-3.22-1.61-1.61-3.06-3.44-7.4-15.39l-13.23-37-9.43,1.15,1.84,6.19c-.96-1.13-1.68-2.07-2.15-2.52-2.74-2.76-7.9-5.29-12.63-5.29-18.7,0-17.74,29.41.33,47.57,6.86,6.89,17.31,12.63,22.59,12.63,5.66,0,6.64-5.28,5.29-16.31,2.3,3.45,5.16,6.9,7.46,9.18,4.8,4.83,9.73,7.13,14.07,7.13s6.79-1.14,7.77-6.43c1.03-5.33,1.92-10.24,1.76-16.08,2.94,5.16,5.94,9.37,8.96,12.42,6.64,6.65,13.85,10.1,19.71,10.1s6.29-7.07,5.9-15.93c.94,1.13,1.94,2.23,3,3.3,6.85,6.89,17.29,12.63,22.58,12.63,5.68,0,6.63-5.28,5.29-16.31,2.3,3.45,5.17,6.9,7.45,9.18,4.82,4.83,9.73,7.13,14.09,7.13s6.79-1.14,7.77-6.43c1.02-5.33,1.94-10.24,1.76-16.08,2.94,5.16,5.94,9.37,8.96,12.42,6.62,6.65,13.84,10.1,19.69,10.1,6.7,0,8.39-8.82,7.84-18.98,1.59,2.22,3.37,4.36,5.37,6.36,6.85,6.89,17.3,12.63,22.59,12.63,5.66,0,6.62-5.28,5.29-16.31,2.29,3.45,5.16,6.9,7.44,9.18,4.82,4.83,11.65,7.89,15.94,7.13,3.17-.56,5.79-1.55,6.89-6.82,5.27-25.32-6.15-49.92-2.08-49.92,1.52,0,3.87,1.61,5.47,3.22,4.82,4.82,8.72,18.6,9.88,22.04l10.58,31.48,9.89-.68c-3.16-13.79-11.75-31.71-11.79-43.89.06-2.98-.9-12.87,3.43-12.87,1.14,0,3.23,1.14,4.6,2.53,7.31,7.36,9.57,33.32,21.91,45.72,4.81,4.82,12.75,9.18,16.72,9.18,8.7,0,8.62-10.45,6.91-20.74,2.38,3.95,5.08,7.49,7.74,10.17,5.96,5.97,14.31,10.57,19.4,10.57,7.57,0,8.06-6.89,7.68-16.76,2.47,3.44,4.16,5.51,5.75,7.12,5.73,5.74,13.02,9.65,17.93,9.65,2.8,0,4.52-1.56,5.43-4.22l.07-.2.03-.09.03-.11c5.27-10.32-10.1-67.52-10.1-67.52,10.83-2.76,20.72-22.31,21.04-51.27,27.6,35.67,27.03,85.64,7.85,87.74-.72.08-.19,2.46.33,3.44.96,1.78,4.31.13,5.02-.31,19.21-11.84,11.37-66.75-13.15-93.56ZM173.36,154.59c-2.07,0-6.02-2.07-8.98-5.06-1.84-1.83-6.29-6.89-11.63-26.65-4.84-18.14-.96-21.82,3.39-21.82,2.08,0,6.03,2.07,8.31,4.36,2.52,2.53,8.18,10.12,12.03,30.1,2.49,12.18.46,19.06-3.12,19.07ZM269.88,154.59h-.01c-2.08,0-6.02-2.07-9-5.06-1.84-1.83-6.3-6.89-11.61-26.65-4.85-18.14-.97-21.82,3.39-21.82,2.08,0,6.02,2.07,8.32,4.36,2.51,2.53,8.17,10.12,12.02,30.1,2.49,12.19.47,19.07-3.11,19.07ZM370.67,154.59h-.01c-2.08,0-6.03-2.07-9.01-5.06-1.83-1.83-6.29-6.89-11.6-26.65-4.85-18.14-.97-21.82,3.39-21.82,2.07,0,6.02,2.07,8.32,4.36,2.52,2.53,8.17,10.12,12.01,30.1,2.5,12.19.48,19.07-3.1,19.07ZM508.94,153.89c-1.7,0-5.18-1.61-7.7-4.14-4.59-4.59-8.76-11.25-12.29-29.41-2.1-11.03-2.29-19.75,3.37-19.75,2.45,0,6.03,2.07,9.23,5.28,13.5,13.56,18.53,48.02,7.39,48.02ZM522.92,30.44c.8,10.63,4.52,30.41,10.31,53.89-22.34-1.88-18.72-45.69-10.31-53.89ZM537.71,83.99c-8.37-30.79-10.48-47.72-11.53-56.14,8.89-5.81,19.51-5.37,27.63,1.88-.41,19.32-5.08,51.37-16.1,54.26ZM525.89,25.21c-.64-9.67,3.47-18.84,11.26-19.55,9.16-.83,16.93,5.5,16.86,21.42-8.65-6.92-18.96-7.56-28.12-1.87Z"/><polygon class="cls-3" points="152.26 10.22 152.26 83 163.13 83 163.13 10.22 189.42 10.22 192.79 .83 125.97 .83 122.6 10.22 152.26 10.22"/><path class="cls-3" d="M207.96,83h37.99c19.82,0,29.45-7.65,29.45-23.38,0-12.56-5.41-19.53-17.03-21.92l-.8-.16v-2.77l.83-.14c7.47-1.3,10.81-5.5,10.81-13.62,0-13.76-8.61-20.17-27.1-20.17h-34.15v82.17ZM264.16,59.24c0,10.42-5.89,14.86-19.69,14.86h-25.63v-29.97h25.63c13.8,0,19.69,4.52,19.69,15.11ZM218.71,9.6h23.65c13.26,0,15.98,5.2,15.98,13.01,0,6.76-1.94,13.01-15.98,13.01h-23.65V9.6Z"/><polygon class="cls-3" points="308.44 83 329.12 83 339.78 45.7 350.44 83 370.99 83 398.42 .83 387.79 .83 361.92 81.29 358.84 81.29 346.78 40.78 360.18 .83 350.67 .83 339.78 36.29 328.89 .83 319.26 .83 332.78 41.03 332.69 41.34 320.72 81.29 317.76 81.29 291.65 .83 281.01 .83 308.44 83"/><path class="cls-3" d="M406.89,83l8.17-24.63h39.82l8.17,24.63h10.89L446.5.83h-22.94l-27.55,82.17h10.89ZM433.37,2.54h3.18l15.39,46.68h-33.96l15.39-46.68Z"/></g></svg>