<?xml version="1.0" encoding="UTF-8"?><svg id="Layer_1" xmlns="http://www.w3.org/2000/svg" viewBox="0 0 19.63 19.63"><defs><style>.cls-1{stroke-width:0px;}</style></defs><g id="Layer_1-2"><path class="cls-1" d="m17.28,11.19c-.06.21-.13.42-.19.63-1.49,5.11-7.76,6.95-11.77,3.45-.07-.06-.14-.12-.24-.21-.45.52-.88,1.04-1.32,1.54-.08.09-.2.15-.3.23-.06-.12-.15-.23-.17-.36-.31-1.83-.6-3.66-.91-5.48-.06-.34.03-.43.37-.43,1.84.02,3.68.01,5.53.02.13,0,.26.07.39.1-.06.12-.1.26-.18.36-.41.49-.82.98-1.26,1.49.71.74,1.56,1.15,2.55,1.23,1.85.14,3.45-.9,4.09-2.65.14-.39.36-.57.78-.55.6.02,1.2.02,1.8,0,.4-.02.68.1.85.47v.16h0Z"/><path class="cls-1" d="m14.51,4.56c.44-.52.88-1.04,1.33-1.55.08-.09.2-.14.3-.22.05.11.13.22.15.33.31,1.83.61,3.66.92,5.48.06.35-.03.46-.39.46-1.83-.02-3.66-.01-5.49-.03-.13,0-.27-.06-.4-.09.06-.13.1-.28.19-.39.4-.49.82-.97,1.24-1.46-1.77-1.99-5.4-1.64-6.59,1.29-.26.65-.28.67-.96.67-.59,0-1.18,0-1.76,0-.56,0-.76-.25-.65-.79.54-2.83,3.16-5.27,6.03-5.63,2.26-.29,4.24.31,5.95,1.81.04.03.08.06.15.11Z"/></g></svg>