<?xml version="1.0" encoding="UTF-8"?><svg id="Layer_1" xmlns="http://www.w3.org/2000/svg" viewBox="0 0 19.63 19.63"><defs><style>.cls-1{stroke-width:0px;}</style></defs><g id="t"><path class="cls-1" d="m7.05,7.22h2.77c.48,0,.87-.39.87-.87v-3.29h-4.5v3.29c0,.48.39.87.87.87Z"/><path class="cls-1" d="m12.59,11.72h-5.54c-.48,0-.87.39-.87.87v3.98h7.27v-3.98c0-.48-.39-.87-.87-.87Z"/><path class="cls-1" d="m15.88,6.23l-3.27-2.73c-.26-.21-.57-.35-.89-.42v3.27c0,1.05-.85,1.9-1.9,1.9h-2.77c-1.05,0-1.9-.85-1.9-1.9v-3.29h-.17c-1.05,0-1.9.85-1.9,1.9v9.69c0,1.05.85,1.9,1.9,1.9h.17v-3.98c0-1.05.85-1.9,1.9-1.9h5.54c1.05,0,1.9.85,1.9,1.9v3.98h.17c1.05,0,1.9-.85,1.9-1.9v-6.96c0-.57-.25-1.1-.69-1.46h0Z"/></g></svg>