<?xml version="1.0" encoding="UTF-8"?><svg id="Layer_2" xmlns="http://www.w3.org/2000/svg" viewBox="0 0 127.34 24.34"><defs><style>.cls-1{fill:#fff;}.cls-1,.cls-2,.cls-3{stroke-width:0px;}.cls-2{fill:#010101;}.cls-3{fill:#020202;}</style></defs><g id="Layer_1-2"><g id="_1HnWpq"><path class="cls-2" d="m47.79,14.82c.14-.56.29-1.11.43-1.67,1.05-4.16,2.1-8.33,3.15-12.49q.16-.65.82-.65c1.68,0,3.37,0,5.05,0,.27,0,.37.07.44.34,1.15,4.7,2.32,9.39,3.49,14.09.03.14.07.27.18.42.18-.64.36-1.29.54-1.93,1.15-4.18,2.3-8.35,3.43-12.53.08-.31.21-.39.53-.39,1.76.02,3.52,0,5.28,0,.13,0,.25,0,.42,0-.41,1.33-.81,2.63-1.22,3.92-2.07,6.63-4.15,13.25-6.21,19.88-.12.39-.27.52-.69.51-1.46-.03-2.93-.02-4.39,0-.28,0-.37-.09-.43-.35-1.28-5.05-2.57-10.1-3.86-15.15-.03-.11-.06-.22-.1-.34-.16.11-.14.26-.18.39-1.34,5.01-2.67,10.02-3.99,15.04-.09.33-.22.41-.54.41-1.49-.02-2.98-.01-4.47,0-.26,0-.38-.07-.46-.33-2.46-7.89-4.92-15.77-7.39-23.65-.08-.25-.06-.33.23-.33,1.83.01,3.65.01,5.48,0,.26,0,.34.1.4.34,1.28,4.69,2.58,9.37,3.87,14.06.04.14.09.28.13.42.03,0,.05,0,.08,0Z"/><path class="cls-2" d="m34.09,11.33c.48.18.91.32,1.32.51,2.03.93,3.15,2.54,3.4,4.75.17,1.47,0,2.9-.69,4.23-.93,1.79-2.49,2.75-4.4,3.21-.82.2-1.66.28-2.5.28-3.47,0-6.94,0-10.41.01-.32,0-.41-.07-.41-.4,0-7.84,0-15.67,0-23.51,0-.32.07-.41.4-.41,3.25.02,6.5,0,9.75.03,1.15,0,2.29.21,3.38.62,2.56.94,3.86,2.98,3.66,5.7-.16,2.24-1.21,3.86-3.24,4.84-.07.03-.13.07-.26.14Zm-8.06,5.4c0,.74.01,1.47,0,2.21,0,.28.09.35.35.34,1.06-.01,2.12,0,3.18,0,.74-.01,1.47-.14,2.13-.51.78-.43,1.18-1.1,1.2-1.99.02-.9-.35-1.6-1.13-2.07-.33-.19-.68-.33-1.05-.4-1.49-.27-2.99-.1-4.49-.14-.23,0-.18.17-.18.3,0,.75,0,1.5,0,2.25Zm0-9.4c0,.69,0,1.37,0,2.06,0,.22.06.28.28.28.91-.01,1.81.01,2.72-.01.65-.02,1.28-.17,1.84-.54,1.36-.9,1.24-2.91-.21-3.65-.34-.17-.7-.28-1.07-.33-1.11-.16-2.22-.05-3.33-.09-.21,0-.22.1-.22.26,0,.67,0,1.35,0,2.02Z"/><path class="cls-1" d="m104.85.01c2,0,3.92.02,5.85-.01.49,0,.75.14,1,.57,1.33,2.24,2.69,4.46,4.04,6.68q.27.45.54.01c1.38-2.28,2.77-4.56,4.13-6.85.19-.31.39-.41.74-.4,1.84.02,3.68,0,5.52,0,.11,0,.26-.05.33.04.09.13-.06.23-.12.34-2.29,3.79-4.58,7.57-6.89,11.35-.16.27-.14.44.02.69,2.39,3.82,4.78,7.64,7.16,11.46.07.11.23.22.14.37-.07.11-.24.05-.37.05-1.92,0-3.83,0-5.75,0-.28,0-.44-.1-.59-.34-1.45-2.41-2.91-4.81-4.37-7.21-.22-.37-.23-.37-.46,0-1.47,2.39-2.94,4.79-4.4,7.19-.15.25-.31.35-.61.35-1.9-.02-3.81,0-5.71-.01-.14,0-.32.07-.4-.05-.08-.13.09-.25.16-.36,2.39-3.82,4.78-7.63,7.19-11.44.18-.29.17-.48,0-.76-2.3-3.74-4.59-7.48-6.88-11.22-.08-.13-.15-.26-.27-.46Z"/><path class="cls-2" d="m87.03,24.31c-.88,0-1.76,0-2.64,0-.25,0-.36-.07-.43-.31-.39-1.24-.82-2.48-1.21-3.72-.08-.27-.22-.32-.47-.32-2.59,0-5.18.01-7.77,0-.31,0-.42.11-.5.38-.37,1.21-.78,2.41-1.16,3.62-.08.27-.2.36-.49.36-1.74-.01-3.47,0-5.21,0q-.44,0-.29-.41c2.5-6.82,5-13.64,7.5-20.47.38-1.04.77-2.09,1.14-3.13.08-.21.17-.3.41-.3,1.63.01,3.26.01,4.9,0,.26,0,.35.11.43.32,1.81,4.91,3.62,9.83,5.44,14.74,1.08,2.92,2.16,5.85,3.23,8.77q.17.47-.31.47c-.85,0-1.71,0-2.56,0Zm-8.71-17.32c-.85,2.63-1.68,5.23-2.53,7.84-.1.29.07.26.25.26,1.55,0,3.11,0,4.66,0,.29,0,.34-.06.25-.34-.82-2.48-1.62-4.96-2.44-7.44-.03-.1-.03-.24-.19-.32Z"/><path class="cls-3" d="m6.29,14.72c0-3.06,0-6.11,0-9.17,0-.37-.11-.44-.45-.44-1.83.02-3.65,0-5.48.01-.29,0-.37-.08-.36-.37C.02,3.28.01,1.81,0,.33,0,.09.05,0,.31,0c5.92,0,11.84,0,17.75,0,.26,0,.35.06.35.34-.01,1.46-.01,2.93,0,4.39,0,.3-.07.39-.39.39-1.89-.02-3.78,0-5.67-.02-.33,0-.4.09-.4.41,0,6.11,0,12.22.02,18.33,0,.38-.09.47-.47.47-1.59-.02-3.19-.02-4.78,0-.34,0-.45-.07-.45-.44.02-3.06,0-6.11,0-9.17Z"/><path class="cls-3" d="m87.07.01c1.63,0,3.26,0,4.89,0,.25,0,.25.19.3.33,1.19,3.22,2.38,6.45,3.57,9.67,1.7,4.61,3.41,9.22,5.11,13.82q.17.47-.32.47c-1.42,0-2.85,0-4.27,0-.27,0-.4-.06-.5-.34-2.89-7.85-5.79-15.69-8.68-23.54-.05-.13-.13-.25-.1-.43Z"/></g></g></svg>